<?xml version="1.0" standalone="no"?>
<!DOCTYPE svg PUBLIC "-//W3C//DTD SVG 20010904//EN"
 "http://www.w3.org/TR/2001/REC-SVG-20010904/DTD/svg10.dtd">
<svg version="1.0" xmlns="http://www.w3.org/2000/svg"
 width="417.000000pt" height="417.000000pt" viewBox="0 0 417.000000 417.000000"
 preserveAspectRatio="xMidYMid meet">
<metadata>
Created by potrace 1.14, written by Peter Selinger 2001-2017
</metadata>
<g transform="translate(0.000000,417.000000) scale(0.100000,-0.100000)"
fill="#000000" stroke="none">
<path d="M2030 4113 c-35 -14 -1617 -937 -1638 -957 -52 -47 -52 -46 -52 -479
0 -308 -3 -406 -12 -417 -7 -8 1 -3 17 12 97 86 540 428 543 419 2 -6 -4 -34
-13 -62 -9 -27 -15 -53 -12 -56 13 -12 64 38 75 75 26 86 104 158 231 212 52
23 54 23 67 5 15 -21 1 -28 179 99 49 35 91 63 92 62 2 -1 -6 -34 -17 -72 -11
-38 -20 -72 -20 -76 0 -5 325 220 760 527 127 90 364 253 464 320 25 17 46 32
46 35 0 4 -138 86 -307 183 -265 153 -313 177 -348 176 -22 0 -47 -3 -55 -6z"/>
<path d="M2800 3800 c-11 -11 -20 -17 -20 -12 -1 4 -11 -6 -24 -21 -13 -16
-80 -72 -149 -125 -70 -54 -216 -165 -324 -249 -412 -317 -976 -743 -984 -743
-4 0 2 32 13 71 11 39 18 72 16 74 -9 9 -89 -52 -92 -70 -18 -92 -21 -100 -53
-115 -77 -37 -129 -122 -143 -232 -8 -69 4 -163 26 -195 7 -12 14 -32 14 -43
0 -19 -30 -140 -37 -149 -8 -10 -43 35 -64 82 -19 43 -23 70 -23 157 -1 58 2
123 6 145 6 32 5 30 -7 -10 -45 -154 -19 -332 60 -411 13 -13 29 -24 34 -24 6
0 22 36 36 81 14 44 30 90 36 101 6 11 49 38 97 60 98 47 81 51 210 -50 81
-63 83 -66 65 -83 -10 -9 -72 -45 -138 -79 -66 -34 -109 -59 -96 -55 40 12
292 123 318 140 l25 17 -96 71 c-58 43 -96 78 -96 89 0 27 105 104 215 158
170 82 150 81 299 11 71 -34 131 -59 134 -57 2 3 -10 12 -26 20 -17 9 -72 43
-123 76 -52 33 -105 60 -119 61 l-25 0 22 15 c12 9 32 24 44 35 12 10 34 19
48 20 l26 0 -23 10 c-35 13 -27 69 11 87 20 10 25 17 19 25 -6 7 -12 28 -14
47 -3 31 1 37 30 52 47 23 48 26 10 25 -29 -2 -33 1 -36 26 -5 43 23 76 91
108 66 30 177 62 186 53 3 -2 -1 -15 -9 -27 -26 -42 -51 -99 -46 -105 3 -3 6
0 6 6 0 6 22 40 50 76 l49 66 -41 0 c-23 0 -88 -16 -145 -35 -57 -20 -108 -33
-113 -30 -25 15 -9 54 38 90 26 21 55 47 64 57 20 22 38 16 38 -13 0 -10 5
-19 10 -19 6 0 10 9 10 20 0 12 10 25 25 32 14 6 24 16 23 22 -6 25 10 19 41
-16 36 -42 57 -47 77 -20 18 23 17 58 -2 91 -15 26 -15 30 4 66 l20 39 21 -42
c17 -33 19 -47 11 -62 -11 -21 0 -79 20 -110 9 -13 11 -13 20 0 5 8 10 23 10
32 0 9 5 20 10 23 6 4 10 -8 10 -27 0 -43 20 -86 43 -94 12 -4 17 -16 17 -43
0 -47 -8 -56 -33 -34 -19 18 -20 17 -7 -6 8 -16 11 -49 8 -98 -4 -52 -1 -78 9
-92 17 -25 25 -184 12 -220 -14 -35 -48 -71 -63 -65 -7 3 -19 -2 -26 -11 -18
-22 -37 -19 -56 10 -9 14 -22 25 -29 25 -7 0 -18 7 -26 16 -16 19 -69 47 -76
40 -3 -3 6 -10 20 -15 14 -6 36 -24 48 -40 13 -17 27 -31 33 -31 5 0 22 -15
38 -32 l28 -33 16 23 c9 12 24 22 34 22 24 0 69 55 77 91 7 36 23 28 23 -12 0
-23 6 -32 27 -40 31 -11 29 -13 -56 -68 -35 -23 -62 -41 -59 -41 3 0 45 18 94
41 79 37 93 40 140 34 46 -5 55 -3 76 18 26 26 145 62 238 73 l55 6 60 -62 60
-61 -25 -19 c-14 -11 -56 -35 -95 -55 -38 -19 -66 -35 -62 -35 25 0 176 61
272 111 104 53 338 197 360 221 10 12 -99 -47 -125 -67 -43 -32 -271 -136
-287 -130 -18 6 -93 90 -93 104 0 3 15 15 33 25 17 11 51 34 74 53 35 28 49
33 95 33 128 0 334 77 459 172 31 24 94 84 140 133 45 50 62 70 36 45 l-47
-44 -1 54 c0 75 -17 118 -59 151 -19 15 -257 154 -527 310 -271 156 -493 287
-493 291 0 4 4 7 8 6 4 -2 23 9 41 25 18 15 28 27 22 27 -6 0 -20 -9 -31 -20z"/>
<path d="M4044 3138 l-19 -23 23 19 c12 11 22 21 22 23 0 8 -8 2 -26 -19z"/>
<path d="M3969 3073 l-24 -28 28 24 c25 23 32 31 24 31 -2 0 -14 -12 -28 -27z"/>
<path d="M4039 3053 c-13 -16 -12 -17 4 -4 9 7 17 15 17 17 0 8 -8 3 -21 -13z"/>
<path d="M3970 2975 c-36 -37 -42 -47 -31 -57 11 -11 12 -10 6 0 -5 9 8 29 36
58 24 24 41 44 38 44 -3 0 -25 -20 -49 -45z"/>
<path d="M2350 2996 c0 -2 8 -10 18 -17 15 -13 16 -12 3 4 -13 16 -21 21 -21
13z"/>
<path d="M2198 2904 c-40 -21 -34 -28 18 -20 29 4 52 2 60 -5 16 -13 19 -49 4
-49 -5 0 -10 -6 -10 -14 0 -17 82 -30 92 -13 4 6 -3 16 -15 22 -20 10 -40 39
-51 78 -7 22 -59 22 -98 1z"/>
<path d="M2334 2904 c3 -9 6 -18 6 -20 0 -2 9 -4 20 -4 23 0 26 10 8 28 -18
18 -41 15 -34 -4z"/>
<path d="M2007 2869 c-11 -6 -30 -9 -43 -6 -23 4 -33 -11 -18 -26 6 -6 84 29
84 38 0 7 -2 6 -23 -6z"/>
<path d="M3979 2863 c-13 -16 -12 -17 4 -4 16 13 21 21 13 21 -2 0 -10 -8 -17
-17z"/>
<path d="M2111 2839 c0 -9 -4 -29 -7 -45 l-6 -29 47 3 47 4 -7 -31 c-7 -34 1
-39 31 -16 13 11 14 14 4 13 -10 -2 -14 4 -13 20 2 19 -2 22 -30 22 -43 0 -54
9 -60 45 -2 17 -5 23 -6 14z"/>
<path d="M2005 2784 c-11 -9 -33 -22 -50 -30 -30 -13 -30 -13 -4 -14 15 0 36
12 54 30 31 33 31 38 0 14z"/>
<path d="M3615 2557 c-187 -191 -280 -268 -382 -321 -42 -21 -53 -20 -53 5 0
17 -17 4 -77 -58 -77 -78 -80 -80 -211 -132 -74 -29 -136 -50 -139 -47 -3 2 6
39 20 80 14 42 23 76 21 76 -12 0 -200 -408 -192 -415 2 -1 95 -55 208 -120
113 -65 219 -128 235 -140 17 -12 72 -45 122 -74 83 -47 94 -56 104 -91 20
-65 -3 -89 -181 -192 -788 -458 -982 -568 -1002 -568 -13 0 -129 61 -258 136
-129 75 -247 142 -263 150 -26 14 -30 12 -118 -47 -50 -33 -93 -59 -95 -56 -3
2 31 33 75 68 45 35 77 67 73 71 -5 5 -125 75 -268 157 -325 187 -338 196
-342 243 -2 21 1 46 7 56 5 10 56 46 113 79 227 131 543 317 547 320 3 2 -4 9
-15 17 -17 13 -17 18 -6 48 18 51 15 52 -24 8 -54 -60 -143 -100 -220 -100
-69 0 -85 11 -58 41 28 31 11 31 -52 2 -51 -24 -75 -28 -172 -31 -126 -5 -136
-1 -147 54 -3 20 -19 81 -36 137 -20 70 -29 124 -29 173 0 71 25 214 56 320 9
31 14 57 12 60 -3 2 -43 -23 -89 -56 -46 -33 -87 -60 -90 -60 -4 0 2 28 12 61
11 34 17 64 15 66 -2 3 -89 -56 -193 -129 l-188 -133 5 -570 c5 -524 6 -573
23 -598 22 -33 -76 25 872 -523 743 -430 814 -469 855 -468 41 0 95 29 585
315 297 174 659 385 805 469 146 84 277 161 291 171 59 42 57 9 61 917 2 536
0 832 -7 832 -5 0 -100 -91 -210 -203z"/>
<path d="M2295 2694 l-40 -24 34 0 c31 0 33 -2 27 -27 l-6 -28 16 28 c13 25
20 28 50 24 l34 -5 -21 29 c-24 34 -41 35 -94 3z"/>
<path d="M2126 2647 c-31 -40 -32 -47 -8 -40 16 4 47 61 38 70 -2 3 -16 -11
-30 -30z"/>
<path d="M2005 2648 c-10 -6 -33 -15 -50 -19 l-30 -7 36 -1 c29 -1 45 -10 77
-41 47 -47 62 -50 61 -12 -1 17 -3 21 -6 9 -6 -24 -27 -16 -31 11 -2 11 -9 26
-17 32 -8 6 -11 18 -8 26 6 17 -5 18 -32 2z"/>
<path d="M279 2223 c-13 -16 -12 -17 4 -4 9 7 17 15 17 17 0 8 -8 3 -21 -13z"/>
<path d="M299 2193 c-13 -16 -12 -17 4 -4 9 7 17 15 17 17 0 8 -8 3 -21 -13z"/>
<path d="M229 2183 c-13 -16 -12 -17 4 -4 9 7 17 15 17 17 0 8 -8 3 -21 -13z"/>
<path d="M179 2143 c-13 -16 -12 -17 4 -4 9 7 17 15 17 17 0 8 -8 3 -21 -13z"/>
<path d="M229 2143 c-13 -16 -12 -17 4 -4 9 7 17 15 17 17 0 8 -8 3 -21 -13z"/>
<path d="M2215 2040 c-6 -99 -9 -110 -26 -110 -10 0 -94 16 -185 35 -92 19
-169 34 -170 32 -4 -4 380 -127 397 -127 15 0 310 162 305 167 -1 2 -62 -22
-135 -52 -72 -31 -136 -53 -140 -51 -4 3 -14 53 -20 111 -7 58 -14 105 -16
105 -1 0 -6 -49 -10 -110z"/>
<path d="M134 2108 l-19 -23 23 19 c21 18 27 26 19 26 -2 0 -12 -10 -23 -22z"/>
<path d="M159 2093 c-13 -16 -12 -17 4 -4 9 7 17 15 17 17 0 8 -8 3 -21 -13z"/>
<path d="M89 2073 c-13 -16 -12 -17 4 -4 9 7 17 15 17 17 0 8 -8 3 -21 -13z"/>
<path d="M89 2043 c-13 -16 -12 -17 4 -4 9 7 17 15 17 17 0 8 -8 3 -21 -13z"/>
<path d="M39 2033 c-13 -16 -12 -17 4 -4 9 7 17 15 17 17 0 8 -8 3 -21 -13z"/>
</g>
</svg>
