<svg id="レイヤー_1" data-name="レイヤー 1" xmlns="http://www.w3.org/2000/svg" viewBox="0 0 80.34 84.48"><defs><style>.cls-1,.cls-5{fill:#fff;}.cls-1,.cls-2{stroke:#979593;stroke-miterlimit:10;stroke-width:2px;}.cls-2{fill:none;}.cls-3{fill:#c8c6c4;}.cls-4{fill:#185abd;}</style></defs><path class="cls-1" d="M59.17,1.24H19a2,2,0,0,0-2,2v78a2,2,0,0,0,2,2H77a2,2,0,0,0,2-2V21.07a2,2,0,0,0-.59-1.42L60.59,1.83A2,2,0,0,0,59.17,1.24Z"/><path class="cls-2" d="M59,1.24v18a2,2,0,0,0,2,2H79"/><path class="cls-3" d="M71,55.24H40v-2H71a1,1,0,0,1,1,1h0A1,1,0,0,1,71,55.24Zm0-6H40v-2H71a1,1,0,0,1,1,1h0A1,1,0,0,1,71,49.24Zm0-6H40v-2H71a1,1,0,0,1,1,1h0A1,1,0,0,1,71,43.24Zm0-6H40v-2H71a1,1,0,0,1,1,1h0A1,1,0,0,1,71,37.24Zm0,24H40v-2H71a1,1,0,0,1,1,1h0A1,1,0,0,1,71,61.24Z"/><path class="cls-4" d="M4,68.24H36a4,4,0,0,0,4-4v-32a4,4,0,0,0-4-4H4a4,4,0,0,0-4,4v32A4,4,0,0,0,4,68.24Z"/><path class="cls-5" d="M13.62,54.88c.07.53.11,1,.13,1.37h.08c0-.37.09-.81.18-1.33s.17-1,.25-1.32l3.53-15.36h4.57L26,53.37a22,22,0,0,1,.45,2.85h.07a20.5,20.5,0,0,1,.38-2.76l2.92-15.22H34l-5.12,22H24L20.53,45.66c-.1-.41-.21-1-.34-1.64S20,42.86,20,42.55h-.06c0,.36-.12.89-.23,1.6s-.21,1.22-.28,1.56L16.1,60.24H11.16L6,38.24h4.23l3.19,15.39A12.23,12.23,0,0,1,13.62,54.88Z"/></svg>