<svg id="Layer_1" data-name="Layer 1" xmlns="http://www.w3.org/2000/svg" viewBox="0 0 448 512"><defs><style>.cls-1{fill:#e2e5e7;}.cls-2{fill:#b0b7bd;}.cls-3{fill:#cad1d8;}.cls-4{fill:#a066aa;}.cls-5{fill:#fff;}</style></defs><path class="cls-1" d="M96,0A32.09,32.09,0,0,0,64,32V480a32.09,32.09,0,0,0,32,32H416a32.09,32.09,0,0,0,32-32V128L320,0Z"/><path class="cls-2" d="M352,128h96L320,0V96A32.09,32.09,0,0,0,352,128Z"/><polygon class="cls-3" points="448 224 352 128 448 128 448 224"/><path class="cls-4" d="M384,416a16,16,0,0,1-16,16H16A16,16,0,0,1,0,416V256a16,16,0,0,1,16-16H368a16,16,0,0,1,16,16Z"/><path class="cls-5" d="M60.82,303.15a8.81,8.81,0,0,1,8.68-8.85H99.07c16.63,0,31.6,11.14,31.6,32.5,0,20.22-15,31.47-31.6,31.47H77.68v16.9c0,5.65-3.55,8.83-8.18,8.83a8.62,8.62,0,0,1-8.68-8.83Zm16.86,7.28v31.86H99.06c8.56,0,15.34-7.55,15.34-15.49,0-9-6.78-16.37-15.34-16.37Z"/><path class="cls-5" d="M147,304.43c0-4.62,1-9.09,7.68-9.09,4.59,0,5.63,1.16,9.07,4.47l42.33,53V303.15c0-4.22,3.7-8.85,8.07-8.85,4.61,0,9.07,4.63,9.07,8.85v72c0,5.65-3.46,7.79-6.78,8.83-4.47,0-6.66-1-10.36-4.46l-42.33-53.75v49.39c0,5.65-3.46,8.84-8.07,8.84a8.43,8.43,0,0,1-8.7-8.84V304.43Z"/><path class="cls-5" d="M319.44,374.16c-9.09,7.54-20.22,10.75-31.47,10.75-26.88,0-45.94-15.36-45.94-45.81,0-25.84,20.1-45.92,47.07-45.92,10.12,0,21.24,3.46,29.17,11.27s-3.45,19.05-11.12,12.29c-4.73-4.63-11.39-8.07-18-8.07-15.47,0-30.43,12.4-30.43,30.43,0,18.95,12.53,30.45,29.3,30.45a32.5,32.5,0,0,0,19.18-5.76V348.08H288c-11.39,0-10.24-15.63,0-15.63h25.58c4.74,0,9.07,3.6,9.07,7.57v27.24C322.62,369.55,321.62,371.71,319.44,374.16Z"/><path class="cls-3" d="M368,432H64v16H368a16,16,0,0,0,16-16V416A16,16,0,0,1,368,432Z"/></svg>