<svg id="レイヤー_1" data-name="レイヤー 1" xmlns="http://www.w3.org/2000/svg" viewBox="0 0 80.18 84.64"><defs><style>.cls-1,.cls-6{fill:#fff;}.cls-1,.cls-2{stroke:#979593;stroke-miterlimit:10;stroke-width:2px;}.cls-2{fill:none;}.cls-3{fill:#f5ba9d;}.cls-4{fill:#c8c6c4;}.cls-5{fill:#c43e1c;}</style></defs><path class="cls-1" d="M59.17,1.56H19a2,2,0,0,0-2,2v78a2,2,0,0,0,2,2H77a2,2,0,0,0,2-2V21.38A2,2,0,0,0,78.41,20L60.59,2.14A2,2,0,0,0,59.17,1.56Z"/><path class="cls-2" d="M59,1.56v18a2,2,0,0,0,2,2H79"/><path class="cls-3" d="M54,28.56a15,15,0,0,1,15,15H54Z"/><path class="cls-4" d="M69,45.56a17,17,0,1,1-17-17v17Zm2,25H26a1,1,0,0,0,0,2H71a1,1,0,0,0,0-2Zm0-5H26a1,1,0,0,0,0,2H71a1,1,0,0,0,0-2Z"/><path class="cls-5" d="M4,68.56H36a4,4,0,0,0,4-4v-32a4,4,0,0,0-4-4H4a4,4,0,0,0-4,4v32A4,4,0,0,0,4,68.56Z"/><path class="cls-6" d="M21.85,36.56q4.44,0,6.79,2A7.1,7.1,0,0,1,31,44.29a8,8,0,0,1-1.17,4.3,7.74,7.74,0,0,1-3.31,2.92,11.2,11.2,0,0,1-5,1.05H17v9H12v-25ZM17,48.56h4a5.14,5.14,0,0,0,3.5-1.05,3.85,3.85,0,0,0,1.18-3q0-3.9-4.54-3.9H17Z"/></svg>