<svg id="Layer_1" data-name="Layer 1" xmlns="http://www.w3.org/2000/svg" viewBox="0 0 448 512"><defs><style>.cls-1{fill:#e2e5e7;}.cls-2{fill:#b0b7bd;}.cls-3{fill:#cad1d8;}.cls-4{fill:#576d7e;}.cls-5{fill:#fff;}</style></defs><path class="cls-1" d="M96,0A32.09,32.09,0,0,0,64,32V480a32.09,32.09,0,0,0,32,32H416a32.09,32.09,0,0,0,32-32V128L320,0Z"/><path class="cls-2" d="M352,128h96L320,0V96A32.09,32.09,0,0,0,352,128Z"/><polygon class="cls-3" points="448 224 352 128 448 128 448 224"/><path class="cls-4" d="M384,416a16,16,0,0,1-16,16H16A16,16,0,0,1,0,416V256a16,16,0,0,1,16-16H368a16,16,0,0,1,16,16Z"/><path class="cls-5" d="M100.78,311.47H78.4c-11.14,0-11.14-16.37,0-16.37h60.51c11.39,0,11.39,16.37,0,16.37H117.66v64.59c0,11.12-16.89,11.4-16.89,0V311.47Z"/><path class="cls-5" d="M192.42,326.18l22.27-27.89c6.65-8.69,19.57,2.43,12.29,10.75-7.68,9.09-15.73,18.94-23.43,29l26.11,32.5c7,9.6-7,18.82-13.95,9.34l-23.53-30.19L169,380.54c-6.52,9.33-21-1.15-13.68-9.85L181,338.06c-8-10.09-15.86-19.93-23.66-29-8.07-9.6,6.91-19.44,12.78-10.48Z"/><path class="cls-5" d="M266.29,311.47H243.92c-11.14,0-11.14-16.37,0-16.37h60.5c11.39,0,11.39,16.37,0,16.37H283.18v64.59c0,11.12-16.89,11.4-16.89,0V311.47Z"/><path class="cls-3" d="M368,432H64v16H368a16,16,0,0,0,16-16V416A16,16,0,0,1,368,432Z"/></svg>