<svg id="レイヤー_1" data-name="レイヤー 1" xmlns="http://www.w3.org/2000/svg" viewBox="0 0 80.18 84.48"><defs><style>.cls-1,.cls-5{fill:#fff;}.cls-1,.cls-2{stroke:#979593;stroke-miterlimit:10;stroke-width:2px;}.cls-2{fill:none;}.cls-3{fill:#c8c6c4;}.cls-4{fill:#107c41;}</style></defs><path class="cls-1" d="M59.17,1.4H19a2,2,0,0,0-2,2v78a2,2,0,0,0,2,2H77a2,2,0,0,0,2-2V21.23a2,2,0,0,0-.59-1.42L60.59,2A2,2,0,0,0,59.17,1.4Z"/><path class="cls-2" d="M59,1.4v18a2,2,0,0,0,2,2H79"/><path class="cls-3" d="M43,55.4H33v-2H43a1,1,0,0,1,1,1h0A1,1,0,0,1,43,55.4Zm0-6H33v-2H43a1,1,0,0,1,1,1h0A1,1,0,0,1,43,49.4Zm0-6H33v-2H43a1,1,0,0,1,1,1h0A1,1,0,0,1,43,43.4Zm0-6H33v-2H43a1,1,0,0,1,1,1h0A1,1,0,0,1,43,37.4Zm0,24H33v-2H43a1,1,0,0,1,1,1h0A1,1,0,0,1,43,61.4Zm28-6H61a1,1,0,0,1-1-1h0a1,1,0,0,1,1-1H71a1,1,0,0,1,1,1h0A1,1,0,0,1,71,55.4Zm0,6H61a1,1,0,0,1-1-1h0a1,1,0,0,1,1-1H71a1,1,0,0,1,1,1h0A1,1,0,0,1,71,61.4Zm0-12H61a1,1,0,0,1-1-1h0a1,1,0,0,1,1-1H71a1,1,0,0,1,1,1h0A1,1,0,0,1,71,49.4Zm0-6H61a1,1,0,0,1-1-1h0a1,1,0,0,1,1-1H71a1,1,0,0,1,1,1h0A1,1,0,0,1,71,43.4Zm0-6H61a1,1,0,0,1-1-1h0a1,1,0,0,1,1-1H71a1,1,0,0,1,1,1h0A1,1,0,0,1,71,37.4Zm-14,18H47a1,1,0,0,1-1-1h0a1,1,0,0,1,1-1H57a1,1,0,0,1,1,1h0A1,1,0,0,1,57,55.4Zm0,6H47a1,1,0,0,1-1-1h0a1,1,0,0,1,1-1H57a1,1,0,0,1,1,1h0A1,1,0,0,1,57,61.4Zm0-12H47a1,1,0,0,1-1-1h0a1,1,0,0,1,1-1H57a1,1,0,0,1,1,1h0A1,1,0,0,1,57,49.4Zm0-6H47a1,1,0,0,1-1-1h0a1,1,0,0,1,1-1H57a1,1,0,0,1,1,1h0A1,1,0,0,1,57,43.4Zm0-6H47a1,1,0,0,1-1-1h0a1,1,0,0,1,1-1H57a1,1,0,0,1,1,1h0A1,1,0,0,1,57,37.4Z"/><path class="cls-4" d="M4,68.4H36a4,4,0,0,0,4-4v-32a4,4,0,0,0-4-4H4a4,4,0,0,0-4,4v32A4,4,0,0,0,4,68.4Z"/><path class="cls-5" d="M9,60.4l7.88-12-7.22-12h5.81l4,7.65a17.18,17.18,0,0,1,.74,1.62h.05c.27-.58.54-1.14.82-1.69l4.21-7.58h5.34L23.12,48.3l7.6,12.1H25L20.49,52a6.62,6.62,0,0,1-.55-1.13h-.06A5.21,5.21,0,0,1,19.35,52L14.66,60.4Z"/></svg>