<svg id="Layer_1" data-name="Layer 1" xmlns="http://www.w3.org/2000/svg" viewBox="0 0 448 512"><defs><style>.cls-1{fill:#e2e5e7;}.cls-2{fill:#b0b7bd;}.cls-3{fill:#cad1d8;}.cls-4{fill:#84bd5a;}.cls-5{fill:#fff;}</style></defs><path class="cls-1" d="M96,0A32.09,32.09,0,0,0,64,32V480a32.09,32.09,0,0,0,32,32H416a32.09,32.09,0,0,0,32-32V128L320,0Z"/><path class="cls-2" d="M352,128h96L320,0V96A32.09,32.09,0,0,0,352,128Z"/><polygon class="cls-3" points="448 224 352 128 448 128 448 224"/><path class="cls-4" d="M384,416a16,16,0,0,1-16,16H16A16,16,0,0,1,0,416V256a16,16,0,0,1,16-16H368a16,16,0,0,1,16,16Z"/><path class="cls-5" d="M100.64,384c-8.06,0-11.26-7.79-6.66-13.3l45.56-60.51H101.78c-11.12,0-10.23-15.71,0-15.71h51.56c9.72,0,12.53,9.18,5.64,16.62l-43.64,56.66h41.59c10.24,0,11.52,16.26-1,16.26H100.64Z"/><path class="cls-5" d="M180.05,303.15c0-10.49,16.89-10.88,16.89,0v73c0,10.61-16.89,10.88-16.89,0Z"/><path class="cls-5" d="M219.62,303.15a8.8,8.8,0,0,1,8.7-8.83h29.55c16.64,0,31.62,11.14,31.62,32.48,0,20.22-15,31.49-31.62,31.49H236.51v16.89c0,5.64-3.58,8.82-8.19,8.82a8.63,8.63,0,0,1-8.7-8.82v-72Zm16.88,7.28V342.3h21.36c8.57,0,15.36-7.56,15.36-15.5,0-8.94-6.79-16.37-15.36-16.37Z"/><path class="cls-3" d="M368,432H64v16H368a16,16,0,0,0,16-16V416A16,16,0,0,1,368,432Z"/></svg>