<svg id="レイヤー_1" data-name="レイヤー 1" xmlns="http://www.w3.org/2000/svg" xmlns:xlink="http://www.w3.org/1999/xlink" viewBox="0 0 546.67 141.73"><defs><style>.cls-1{fill:#15b6b8;}.cls-2,.cls-6{fill:#41c2c4;}.cls-3{fill:#65cccd;}.cls-4{fill:#84d5d6;}.cls-5{fill:#a0ddde;}.cls-6{font-size:150px;font-family:DistorterDemoRegular, Distorter Demo;}.cls-7{fill:url(#名称未設定グラデーション_180);}.cls-8{fill:#fff;}.cls-11,.cls-9{fill:none;stroke-miterlimit:10;stroke-width:2px;}.cls-9{stroke:#9686fc;}.cls-10{fill:#9686fc;}.cls-11{stroke:#8796f8;}.cls-12{fill:#8796f8;}.cls-13{fill:#fff800;}</style><linearGradient id="名称未設定グラデーション_180" x1="169.33" y1="-4.21" x2="514.11" y2="156.56" gradientUnits="userSpaceOnUse"><stop offset="0" stop-color="#41c2c4"/><stop offset="0.5" stop-color="#9686fc"/><stop offset="0.75" stop-color="#78a5f4"/><stop offset="1" stop-color="#e55d87"/></linearGradient></defs><path class="cls-1" d="M22.8,71.17q0-15.3,0-30.59a4.75,4.75,0,0,1,2.57-4.41Q50.6,21.55,75.81,6.87a4.86,4.86,0,0,1,5.35,0c11,6.39,22,12.71,33.05,19.06l17.9,10.31a4.53,4.53,0,0,1,2.44,4.26q-.06,21.89-.08,43.75c0,5.61-.09,11.22,0,16.82a5.15,5.15,0,0,1-2.78,5c-7,4-14,8.08-21,12.14L82.84,134.43c-.61.36-1.22.74-1.84,1.08a4.37,4.37,0,0,1-4.56,0L58.82,125.33l-22.7-13.15Q30.59,109,25,105.79a4.47,4.47,0,0,1-2.31-4.22q0-15.21,0-30.4Z"/><path class="cls-2" d="M47.4,90.62A24.65,24.65,0,0,0,43,88.17a4.43,4.43,0,0,1-2.83-4.54c.06-7.49,0-15,0-22.47q0-10.78,0-21.57a1.33,1.33,0,0,1,.75-1.43c4-2.1,7.85-4.29,11.77-6.46q7.51-4.15,15-8.31c3.14-1.74,6.29-3.47,9.48-5.13.51-.26.89-1,1.66-.67A3.77,3.77,0,0,1,79,18.7q0,18.12,0,36.26c0,5.53,0,11.06,0,16.59,0,.6.09,1.25-.58,1.62-3.28,1.5-6.3,3.48-9.41,5.27-7,4-14,8.16-21,12.18C47.78,90.69,47.59,90.79,47.4,90.62Z"/><path class="cls-3" d="M78,73.1A1,1,0,0,0,78.65,72c-.12-4.26,0-8.52-.07-12.79-.09-4,0-8,0-12.05q0-14.15,0-28.3c0-.42-.17-.89.21-1.26,2.33,1,4.47,2.4,6.7,3.61,3.34,1.81,6.62,3.7,9.94,5.55l13.93,7.78c2.16,1.2,4.32,2.4,6.51,3.55a1.34,1.34,0,0,1,.88,1.38q0,22.38,0,44.76A3.76,3.76,0,0,1,114.52,88c-1.3.59-2.52,1.32-3.78,2-.32.18-.72.25-.89.64a.66.66,0,0,1-.58,0c-5.39-3.07-10.75-6.2-16.13-9.3Q86.84,77.69,80.55,74C79.75,73.56,78.82,73.5,78,73.1Z"/><path class="cls-4" d="M109.44,90.46l.41.2c1.67,1,3.32,2,5,2.9a3.11,3.11,0,0,1,2,2.91,3.38,3.38,0,0,1-2,3.07l-13.59,7.91L89.5,114.22q-4.65,2.69-9.29,5.4a2.84,2.84,0,0,1-3.08,0l-29.94-17.3c-1.76-1-3.5-2.06-5.29-3A3,3,0,0,1,42,93.8c1.82-1,3.62-2.11,5.44-3.18l.43-.16c2.64,1.4,5.29,2.77,7.9,4.21Q60,97,64.32,99.31c2.88,1.52,5.72,3.11,8.57,4.69,1.63.9,3.28,1.78,5,2.57a2.54,2.54,0,0,0,2.42-.06c6.83-3.79,13.73-7.45,20.57-11.2,2.41-1.32,4.85-2.59,7.25-3.93A11.34,11.34,0,0,0,109.44,90.46Z"/><path class="cls-5" d="M109.44,90.46c-.29,1.12-1.41,1.22-2.18,1.65-3.63,2-7.33,4-11,6q-7.82,4.25-15.62,8.53a3.21,3.21,0,0,1-3.28,0c-2.16-1-4.2-2.25-6.32-3.32-1.7-.86-3.33-1.85-5-2.76L52,92.92c-1.2-.64-2.42-1.26-3.64-1.89a1.19,1.19,0,0,1-.56-.57l9.56-5.59L69.15,78c2.63-1.53,5.26-3.07,7.91-4.59a4.82,4.82,0,0,1,1-.32c1.76-.22,3,.94,4.36,1.71,4.57,2.58,9.08,5.26,13.62,7.89Z"/><path class="cls-7" d="M245.93,56.39,233.48,68.33h-2.63l1.9,2,1.9-2,.22-.29.3.29.29-.29.29.29,1.83,2,1.91-2,.29-.29.29.29.3.22-.3.37-1.9,2,1.9,2,.3.3-.3.29-.29.29-.29-.29-1.91-2-1.83,2-.29.29-.29-.29-.3.29-.22-.29-1.9-2-1.9,2-.3.29-.29-.29-.29.29-.22-.29-1.91-2-1.9,2h2.12L200.6,99.75h35.81v4.11H227v6.73h9.45v1.25H202.94v4.76h33.47v1.68h2.42v-7.69h6v-6.73h-6V99.75h7.1v28.93l-86.86.08.07-29,1.17-1.09V91.4h-5.42V89.35h5.42V85.84h2.35v3.51h7.4l34.42-33H159.07V41.16h-8.72V36.47h36.7V34.06H159.14v-6.6h86.79ZM168.74,96.6V91.4h-6.08v5.2Zm42-27.68v4l1.91-2Zm4.33-.59h-3.74l1.9,2Zm-3.74,5.13H215l-1.84-2Zm2.42-2.56,1.9,2,1.91-2-1.91-2Zm6.22-2.57H216.2l1.83,2Zm-3.73,5.13h3.73l-1.9-2Zm2.41-2.56,1.91,2,1.9-2-1.9-2Zm6.23-2.57H221l1.91,2ZM221,73.46h3.81l-1.9-2Zm4.4-.59,1.83-2-1.83-2-1.91,2Zm.51-4.54,1.9,2,1.91-2Zm6.22,2.57-1.9-2-1.9,2,1.9,2Zm3-2-1.91,2,1.91,2,1.9-2Z"/><path class="cls-7" d="M341.37,27.46V56.39H283.51v7.26h28.93V92.58H283.51v7.17h57.86v28.93l-57.86.08H254.58v-1.91a4.41,4.41,0,0,1-2.35-4V96.53a4.48,4.48,0,0,1,2.35-4.1V81.59H253.4V80.34h1.18V37.57l6.3-6.37-1.54-1.54-4.76,4.76v-7h86.79Zm-74.56,2.2-12,11.94,1.61,1.54L268.35,31.2Zm-5.2,54.42V82.83H257V81.52h-1.24V107.3H257V84.08Zm.66-42.48,1.54,1.54,12-11.94-1.61-1.61Zm7.47,0,1.54,1.54L283.21,31.2l-1.53-1.61Zm8.93,1.54,12-11.94-1.54-1.61-12,12ZM304,109.57v6.74h5.78v-6.74Zm8.13,0v6.74h3.44v-6.74Zm4.61,0v6.74h1.1v-6.74Zm3.95,0v6.74h1.84v-6.74Zm2.57,0v6.74h15.38v-6.74Zm16,0v6.74h2.06v-6.74Z"/><path class="cls-7" d="M444.27,74.56v4.61H426.4v2.49h10.26v3.67A43.21,43.21,0,0,1,424,116a43.81,43.81,0,0,1-13.92,9.38,43.22,43.22,0,0,1-41.24-4.25v5h-.58V114h-2.13v5.12a44.66,44.66,0,0,1-11.9-14.94,42,42,0,0,1-4.36-18.89V42h11V39.48H342.91V34.86h6.95v-7.4H378.8V85.33a14.47,14.47,0,0,0,28.93,0V59.47l-.22.22-.81-.88L406,58l-.81.8-.8.88-.88-.88-.88.88-.73-.88-.81-.8-.66.65-.95,1-.88-.88-.8-.8,1-1.1.66-.66-.66-.66-1-1.1.8-.81.88-.87.95,1,.66.66,1.54-1.68.88.87.88-.87L406,54.49l1.54-1.68.22.21V27.46h28.93v47.1Zm-60,46.21V114H368.83v6.73Zm2.56,0V114H385v6.73Zm4,0V114h-1.09v6.73Zm4.62,0V114h-3.44v6.73Zm8.13,0V114h-5.79v6.73Zm0-63.72.8-.8-.8-.81-.81.81Zm4.91,0,.8-.8-.8-.81-.81.81Zm2.41-2.56.81-.81h-1.54Zm-.73,4.32h1.54l-.81-.8Zm3.22-1.76.74-.8-.74-.81-.8.81Zm2.42-2.56.81-.81H414.9Zm-.81,4.32h1.62l-.81-.8Zm3.23-1.76.8-.8-.8-.81-.74.81Zm2.49-2.56.8-.81h-1.61Zm-.81,4.32h1.61l-.8-.8ZM423,57.05l.81-.8-.81-.81-.8.81Zm2.49-2.56.59-.66a2.36,2.36,0,0,0-.73-.15h-.66Zm-.14,4.32a2.36,2.36,0,0,0,.73-.15l-.59-.65-.8.8Zm2.41-3.22-.66.66.66.66a2.38,2.38,0,0,0,.15-.66A2.24,2.24,0,0,0,427.79,55.59Z"/><path class="cls-7" d="M532.38,100.27h5.35v5.64H534.8v-2.86h-8.06V98h-15v5h-6.3v2.86h25.71l-.44,1.31h-17v2.42h16a32.25,32.25,0,0,1-11.86,13.84,31.44,31.44,0,0,1-17.73,5.28H445.81v-1.91h31.57v-5.64H445.81V99.83H500a3.76,3.76,0,0,0,3.66-3.66A3.62,3.62,0,0,0,500,92.5H478.33A32.47,32.47,0,0,1,445.81,60a28.37,28.37,0,0,1,.22-3.59H461v3.74h1.17v-8.5H447a32.32,32.32,0,0,1,11.54-17.36,31.21,31.21,0,0,1,19.81-6.81h54.35L532.6,48h4.32v2.35H532.6v6H478.33a3.59,3.59,0,0,0,0,7.18h21.75a32.5,32.5,0,0,1,32.52,32.6A36.37,36.37,0,0,1,532.38,100.27Z"/><polygon class="cls-8" points="523.25 35.05 524.58 32.63 527 31.31 524.58 29.99 523.25 27.58 521.93 29.99 519.51 31.31 521.93 32.63 523.25 35.05"/><polygon class="cls-8" points="512.27 35.05 513.6 32.63 516.01 31.31 513.6 29.99 512.27 27.58 510.95 29.99 508.53 31.31 510.95 32.63 512.27 35.05"/><polygon class="cls-8" points="501.29 35.05 502.61 32.63 505.03 31.31 502.61 29.99 501.29 27.58 499.97 29.99 497.55 31.31 499.97 32.63 501.29 35.05"/><polygon class="cls-8" points="488.98 32.63 490.31 35.05 491.63 32.63 494.05 31.31 491.63 29.99 490.31 27.58 488.98 29.99 486.56 31.31 488.98 32.63"/><polygon class="cls-8" points="484.88 42.61 484.86 42.65 484.86 46.39 488.55 46.39 488.62 46.35 486.2 45.03 484.88 42.61"/><polygon class="cls-8" points="517.82 42.61 516.5 45.03 514.08 46.35 514.15 46.39 521.5 46.39 521.57 46.35 519.15 45.03 517.82 42.61"/><polygon class="cls-8" points="495.86 42.61 494.54 45.03 492.12 46.35 492.19 46.39 499.53 46.39 499.6 46.35 497.18 45.03 495.86 42.61"/><polygon class="cls-8" points="506.84 42.61 505.52 45.03 503.1 46.35 503.17 46.39 510.51 46.39 510.58 46.35 508.17 45.03 506.84 42.61"/><polygon class="cls-8" points="528.81 42.61 527.48 45.03 525.06 46.35 525.13 46.39 532.48 46.39 532.55 46.35 530.13 45.03 528.81 42.61"/><polygon class="cls-8" points="486.2 37.38 488.62 36.05 486.2 34.73 484.88 32.32 484.86 32.36 484.86 39.75 484.88 39.79 486.2 37.38"/><polygon class="cls-8" points="528.81 39.79 530.13 37.38 532.55 36.05 530.13 34.73 528.81 32.32 527.48 34.73 525.06 36.05 527.48 37.38 528.81 39.79"/><polygon class="cls-8" points="524.58 40.28 523.25 37.87 521.93 40.28 519.51 41.61 521.93 42.93 523.25 45.34 524.58 42.93 527 41.61 524.58 40.28"/><polygon class="cls-8" points="502.61 40.28 501.29 37.87 499.97 40.28 497.55 41.61 499.97 42.93 501.29 45.34 502.61 42.93 505.03 41.61 502.61 40.28"/><polygon class="cls-8" points="495.86 39.79 497.18 37.38 499.6 36.05 497.18 34.73 495.86 32.32 494.54 34.73 492.12 36.05 494.54 37.38 495.86 39.79"/><polygon class="cls-8" points="491.63 40.28 490.31 37.87 488.98 40.28 486.56 41.61 488.98 42.93 490.31 45.34 491.63 42.93 494.05 41.61 491.63 40.28"/><polygon class="cls-8" points="513.6 40.28 512.27 37.87 510.95 40.28 508.53 41.61 510.95 42.93 512.27 45.34 513.6 42.93 516.01 41.61 513.6 40.28"/><polygon class="cls-8" points="506.84 39.79 508.17 37.38 510.58 36.05 508.17 34.73 506.84 32.32 505.52 34.73 503.1 36.05 505.52 37.38 506.84 39.79"/><polygon class="cls-8" points="517.82 39.79 519.15 37.38 521.57 36.05 519.15 34.73 517.82 32.32 516.5 34.73 514.08 36.05 516.5 37.38 517.82 39.79"/><circle class="cls-9" cx="368.72" cy="20.4" r="6.96"/><circle class="cls-10" cx="368.72" cy="20.4" r="4"/><circle class="cls-8" cx="367.48" cy="19.93" r="1.67"/><rect class="cls-10" x="362.1" y="10.24" width="1.4" height="5.04" rx="0.7" transform="translate(69.05 226.07) rotate(-38)"/><rect class="cls-10" x="368.02" y="8.4" width="1.4" height="5.04" rx="0.7"/><rect class="cls-10" x="374.17" y="10.24" width="1.4" height="5.04" rx="0.7" transform="translate(99.19 -241.58) rotate(40.74)"/><circle class="cls-11" cx="419.36" cy="20.79" r="6.96"/><circle class="cls-12" cx="419.36" cy="20.79" r="4"/><circle class="cls-8" cx="418.13" cy="20.32" r="1.67"/><rect class="cls-12" x="412.75" y="10.63" width="1.4" height="5.04" rx="0.7" transform="matrix(0.79, -0.62, 0.62, 0.79, 79.55, 257.33)"/><rect class="cls-12" x="418.66" y="8.78" width="1.4" height="5.04" rx="0.7"/><rect class="cls-12" x="424.81" y="10.63" width="1.4" height="5.04" rx="0.7" transform="translate(111.72 -274.54) rotate(40.74)"/><path class="cls-8" d="M46.37,70.08a22.44,22.44,0,0,0-1.13,4.1c-2.26-1-3.8-7.5-2.65-11.05a12.92,12.92,0,0,1,.41-3c0-.39-.22-.29-.07-.3s.08,0,.07.1A4.32,4.32,0,0,1,42.37,62a17.24,17.24,0,0,0,0,10.47A8.47,8.47,0,0,0,44.89,76c.6.52.86.39,1.08-.35.44-1.52,1-3,1.46-4.53a2.78,2.78,0,0,1,1.37-1.64,47.73,47.73,0,0,1,4.4-2.08,1,1,0,0,1,1.15.22c1.75,1.35,3.48,2.71,5.26,4,.64.48.58.72-.07,1.12-2.16,1.35-4.49,2.4-6.73,3.61a7.29,7.29,0,0,1-2.22,1,12.89,12.89,0,0,1,2.7-.8,78.72,78.72,0,0,0,10.06-4.55c-2-1.5-3.86-2.94-5.77-4.31-.8-.57-.94-.82-.11-1.64,3.16-3.12,7.11-4.74,11.11-6.33a1.53,1.53,0,0,1,1.31.12L76,62.66c.42.15.91.06,1.16.28a1.52,1.52,0,0,1-.65-.56c-1.94-1.26-3.89-2.51-5.83-3.79a3.71,3.71,0,0,0-2.22-.46c.46-.51,1-.55,1.33-.88s1.52.32.65-.77a1.9,1.9,0,0,1,.47-.24c.79-.16,1.58-.3,2.37-.45-.16-.24-.47-.2-.7-.32s-1,.39-1.09-.3c-.26-1.68-.13-1.91,1-2.29s1.08-.45.26-1.16c-.29-.25-.11-.37,0-.54s.24-.22.11-.47c-.57-1.09-.41-1.45.85-1.85A5.25,5.25,0,0,0,76,47.43c-.66.24-1,.4-1.37.49-.59.14-1.35.58-1.72,0a2,2,0,0,1,.14-2.1c.16-.26.31-.53.46-.79a6.92,6.92,0,0,1,3-1.86,16.55,16.55,0,0,1,4.19-1.35c.34-.05.71-.16,1,.19s.06.67-.1,1c-.08.14-.15.28-.23.41-1.14,1.67-2.12,3.4-2,5.54,0,.18-.12.36-.33.53A2.6,2.6,0,0,1,80.81,49c.72.15,1.42.23,1.07,1.29-.18.58.23.54.61.38a10,10,0,0,0,.9-.52c.69-.27,1.31-.67,1.68-.8l-2.07,1c-.36.16-.82.18-.78-.28.09-.9-.49-.89-1-1-1.75-.35-1.89-.57-1.44-2.32a10.25,10.25,0,0,1,3.47-5,34.85,34.85,0,0,1,3.54-.06,2.74,2.74,0,0,1,1.4,1.89c1.06,1.44.89,3.1.56,4.67-.17.79-.37,1.24.3,2a2.85,2.85,0,0,1,.27,3.14,2.84,2.84,0,0,0-.25-.39c-2-2.48-1.55-2.27-4.2-.73.4.45,1.36-.47,1.46.51.06.59-.47,1.12-.59,1.74.08-.22.14-.43.23-.64.29-.71.68-1.48,1.47-1.47a2.12,2.12,0,0,1,1.9,1c.72,2.16.63,4.15-1.2,5.78-.21.33-.65.09-.89.36a3.24,3.24,0,0,0-.49.49c-.53.69-1,.55-1.52,0a2.3,2.3,0,0,1-.66-1.52c-.37.53-.8.5-1.23,0a6.08,6.08,0,0,0-1.06-.9,2.67,2.67,0,0,0-1.56-.53,4.74,4.74,0,0,1,1.27.37,3.68,3.68,0,0,1,1.27,1.3c.26.4.42.89,1.1.79.3,0,.45.37.6.64a2.92,2.92,0,0,0,1.31,1.38c.38-.36.35-1,.8-1.24s.69.11,1,.09a6.09,6.09,0,0,0,2.47-4c.31,1.29-.36,2.84,1.68,2.68l0,.29-4.06,2.69c-.16.54-.77.52-1.09.87s-.66.34-.88.52a7.18,7.18,0,0,0,1-.58,3.74,3.74,0,0,1,1.51-.53c1.68-.78,3.35-1.6,5-2.34.93-.41,1.81.19,2.7.33.63.09,1.13.32,1.48-.54.28-.69,1.08-1,1.77-1.23a28.14,28.14,0,0,1,7.14-1.51.94.94,0,0,1,.84.27l3.45,3.52-4.62,2.81c-.14.38-.53.49-.7.64.26-.33.8-.18,1.25-.32a50.43,50.43,0,0,0,10.11-4.69q2.37-1.5,4.72-3a12.38,12.38,0,0,1,2.27-1.53c.5-.34,1-.61,1.66-1-.68.4-1.26.71-1.81,1.08-.87.43-1.61,1.17-2.66,1.21-2.59,1.23-5.2,2.45-7.79,3.72a1.2,1.2,0,0,1-1.75-.42A17.05,17.05,0,0,0,110,57.27c-.42-.41-.55-.66.09-1a16.7,16.7,0,0,0,3.74-2.73,1.36,1.36,0,0,1,1.07-.3c6.73-.12,12.46-2.79,17.58-7a5.48,5.48,0,0,0,.87-.93c2.4-3.35,5.72-5.75,8.74-8.45a1.43,1.43,0,0,1,.39-.15,3.94,3.94,0,0,1-.77,3,27.89,27.89,0,0,1-3.27,3.6c-.41.33-.84.72-.46,1.41.71-.38,1.25-1.07,2.17-1,.61,0,.79.33.48.78-1.08,1.57-2,3.3-4,4a14.55,14.55,0,0,0-4.9,3.26,83,83,0,0,0-7,7.27,32.64,32.64,0,0,1-10,7.5c-.92.47-1.16.21-1-.72,0-.19,0-.38,0-.85-2,2.17-3.39,4.59-6,5.77a65.24,65.24,0,0,1-7.74,3c.43-1.89,1.29-3.45,1.56-5.17-.39-.21-.53.09-.63.3-2.21,4.31-4.27,8.68-6.09,13.16a10.13,10.13,0,0,1-4.16,4.92c-2.8,1.78-5.62,3.53-8.42,5.31-.13.08-.28.12-.33.31,3.28-.78,6.53-1.42,9.84-2-1,.66-2,1.32-3,2l-28.2,18.19A23.16,23.16,0,0,0,58,112.4c-.28.11-.52.16-.51-.26L74.1,98.36l-.1-.21-12.23,3.49-.11-.18L74.89,86.23c-.77-.36-1.08.32-1.49.58-1.17.75-2.3,1.58-3.4,2.42-.52.4-.79.44-1.14-.19a18.91,18.91,0,0,0-7.66-7.41c-.42-.23-.52-.42-.3-.89a14.78,14.78,0,0,0,.92-2.65c-2.84,3.67-6.16,6.1-11.11,4.71a7.08,7.08,0,0,0,1.52-2,.62.62,0,0,0-.63,0c-3.39,2.17-7.11,2.4-11,1.89-.43-.06-.71-.21-.78-.68a58.8,58.8,0,0,0-2-7.39c-1-3.25-.19-6.37.42-9.5.45-2.27,1.17-4.49,1.77-6.73a6.5,6.5,0,0,1,1.41-3.8,7.11,7.11,0,0,0,.42-.94c1.09-4.32,4.64-6,8.23-7.56.81-.36,1.52-.33,1.59.84a1.91,1.91,0,0,1-.16,2.35c-.2,1.3-.41,2.59-.58,3.9a1,1,0,0,1-.79,1,5.89,5.89,0,0,0-3.76,3.25,12.92,12.92,0,0,0-.87,10c.09.29.11.63.49.72C46.7,68.75,46.48,69.43,46.37,70.08Z"/><path class="cls-13" d="M51.55,49.36c.05-.78.1-1.57.16-2.35L60.11,41l-1.4,5.23L62,43.9,94.59,21.14c.22-.15.46-.28.69-.41s.34.06.31.3c-4.26,3.29-8.51,6.58-12.79,9.85Q68.6,41.73,54.35,52.56a1.79,1.79,0,0,1-1.05.57l1.3-5.07a11.77,11.77,0,0,0-2.4,1.59C51.74,50,51.52,50,51.55,49.36Z"/><path class="cls-13" d="M41.47,54.67l-1.41,3.8-3.13,2.18c-1,.71-2,1.43-3.29,2.35l1.29-4.42-.21-.17L9.37,76.4c-.25,0-.35-.07-.3-.31L40.49,51.21c-.21,1.8-1,3.14-1.22,4.67C40.23,55.7,40.66,54.85,41.47,54.67Z"/><path class="cls-8" d="M73.59,41.74a17.92,17.92,0,0,0,4-3.38c.36.34.66.66.52,1.19-.08.32-.13.67.31.72s.63-.33.56-.69c-.15-.8-.1-1.23.94-1.24.89,0,.12-.91.52-1.37.49.63.94,1.32,1.49,1.92,1.06,1.16,1.88,1,2.51-.47a2.15,2.15,0,0,0-.62-2.92c-.33-.28-.16-.46-.07-.68.26-.59.54-1.18,1-2.1.37,1.31,1.72,2,.78,3.37-.38.57.43,3.32,1,3.69.85.57.58-.51.94-.68s.39.23.4.48,0,.6.4.7c.42.34,0,1.17,1.08,1.31.72.09.69,1.44.43,2.29-.12.4-.48.45-.77.06s-.39-.55-.58-.83c-.67-.28-.88-1-1.48-1.39-.08-.08-.16-.25-.23-.24-1.36.18-2.62-.49-4-.43a1.7,1.7,0,0,0-1.4.59A37,37,0,0,0,74.49,44c-.82.37-1.11.13-1.1-.82C73.39,42.67,73.16,42.15,73.59,41.74Z"/><path class="cls-3" d="M73.59,41.74a2.77,2.77,0,0,0-.11.56c0,1.76,0,1.75,1.6,1.05a24.19,24.19,0,0,1,6.29-1.9,3.35,3.35,0,0,1,3.15.07c-.44.48-.93.16-1.29.38-.94,1.17-1.94,2.29-2.77,3.52a5.29,5.29,0,0,0-.71,2.49c0,.48.25.69.68.75a9.58,9.58,0,0,0,1.49.17c.82,0,1.09.21.57,1-.09.13-.26.36,0,.45s.34-.12.51-.18.53-.16.51.27a1.3,1.3,0,0,1-.18.15c-.55.31-1.1,1.06-1.7.67s.25-1.08.16-1.69a3.29,3.29,0,0,0-2.83.26,13,13,0,0,1,2.76-7.65,20.69,20.69,0,0,0-8.21,3,8.58,8.58,0,0,1-.27-2.53C73.28,42.2,73.19,41.86,73.59,41.74Z"/><path class="cls-13" d="M95.59,21l-.31-.3a35.47,35.47,0,0,1,4.22-3c.23-.07.3,0,.26.26A49.32,49.32,0,0,1,95.59,21Z"/><path class="cls-13" d="M9.07,76.09l.3.31a38.92,38.92,0,0,1-3.76,2.75c-.23.07-.28,0-.22-.23Z"/><path class="cls-13" d="M99.76,18l-.26-.26a21,21,0,0,1,3.58-2.45A20.48,20.48,0,0,1,99.76,18Z"/><path class="cls-1" d="M124.19,54.75a7.37,7.37,0,0,1-2.35,1.36c-.12-.21-.34-.21-.54-.26l2.58-1.42C124.13,54.4,124.23,54.51,124.19,54.75Z"/><path class="cls-2" d="M53.29,76.6a10.33,10.33,0,0,1-3.12,1,8.14,8.14,0,0,1,2.64-1.22Z"/><path class="cls-2" d="M42.37,62a4.93,4.93,0,0,1,.9-2.35c-.22,1.18-.45,2.35-.68,3.53C42.42,62.76,42.73,62.29,42.37,62Z"/><path class="cls-8" d="M88.18,40.28c-.91,0-.21-1-.8-1.18l.4-1.74A3.41,3.41,0,0,1,88,39.21C88,39.58,87.81,40,88.18,40.28Z"/><path class="cls-13" d="M5.39,78.92l.22.23a6.17,6.17,0,0,1-1.93,1.29A4,4,0,0,1,5.39,78.92Z"/><path class="cls-3" d="M87,41.67a3,3,0,0,1,1.34,1.44l-.2.45c-.5-.51-.74-1.25-1.38-1.64C86.7,41.7,86.8,41.63,87,41.67Z"/><path class="cls-2" d="M76.52,62.38a3.82,3.82,0,0,1,1.73,1.22A6.78,6.78,0,0,1,76,62.66C76.19,62.58,76.43,62.61,76.52,62.38Z"/><path class="cls-2" d="M107,63.82a4.93,4.93,0,0,1-2.18.7,5,5,0,0,1,1.63-1C106.57,63.74,106.8,63.75,107,63.82Z"/><path class="cls-8" d="M56.56,113.37a4.14,4.14,0,0,1-1.75,1,4.7,4.7,0,0,1,1.45-1.32A.33.33,0,0,1,56.56,113.37Z"/><path class="cls-3" d="M88.08,60.25c-.3.6-.61-.53-.91,0-.1-.38.2-.77,0-1.15.3-.41.61.22.91,0A1,1,0,0,0,88.08,60.25Z"/><path class="cls-8" d="M56.56,113.37l-.3-.31,1.18-.92.51.26Z"/><path class="cls-3" d="M87,62.61l1.16-.7c.11.21.33.23.53.28-.38.42-1,.42-1.41.7C87,63,86.91,62.84,87,62.61Z"/><path class="cls-3" d="M93.72,72.63c-3.21,1.8-6.42,3.59-9.63,5.4a1.54,1.54,0,0,1-1.32.15Q75.87,76,69,73.77s-.09-.1-.17-.19a8.24,8.24,0,0,1,3,.46c3.22.63,6.44,1.34,9.65,2,.67.15,1,.08,1-.72.1-2.51.28-5,.46-7.87a54.9,54.9,0,0,1,.82,5.62A16,16,0,0,1,84,75.18c0,.78.28.9,1,.6,2.74-1.17,5.5-2.29,8.26-3.42C93.48,72.27,93.72,72.21,93.72,72.63Z"/><path class="cls-3" d="M84.67,44.23c.5-.12.68.14.86.81.29,1.08.48,2.39,2,2.58.33,0,.21.38.12.56-.17.35-.54.8-.86.59-.61-.41-1.27-.24-1.89-.39-.26-.06-.56-.09-.67-.39s.17-.51.38-.64c.48-.28.69-.63.4-1.14a1.12,1.12,0,0,0-1.29-.57,4.93,4.93,0,0,1-1.7.28c-.3,0-.73,0-.82-.28s.34-.55.62-.71A6.2,6.2,0,0,1,84.67,44.23Z"/><path class="cls-2" d="M80.73,53.11l-.5,1.66c-.7-.65-1-.34-1.13,1,0,.34,0,.69,0,1.21a6.16,6.16,0,0,1-2.79-2.3c-.31-.53-.59-.7-1.18-.53a2,2,0,0,1-2-.27,7.81,7.81,0,0,0,4.22-1.51c.22.42-.16.59-.24.86a4.89,4.89,0,0,0-.12.53c1.13.36.58,1.81,1.55,2.37a6.06,6.06,0,0,1,1.71-3.47C80.62,52.56,80.78,52.73,80.73,53.11Z"/><path class="cls-3" d="M89.29,53.32l-.76-.66c-.3.21,0,.54-.23.75-.29-.28-.13-.94-.82-.91s-.78.45-1,.82c-.34.54-.6,1.13-1,1.84a5.47,5.47,0,0,1,.69-2.63c-.74-.06-1.52.49-2.3-.34a11,11,0,0,0,2.88-1.54c.44-.3,1.23.34,1.5.77a4.45,4.45,0,0,1,1,1.91Z"/><path class="cls-3" d="M87.18,59.1c.63.38.12.77,0,1.15a6.1,6.1,0,0,0-.36.58C86.32,62,86.08,62,85.27,61a4.47,4.47,0,0,1-.51-.77c-.13-.23-.22-.48-.38-.83l-.57.68a8.52,8.52,0,0,0-1.94-2.62c0-.41.22-.35.48-.24a2.54,2.54,0,0,1,1.14.93c.38.55.66.51.89-.06.28,0,.25.2.29.32.27.64.53,1.41,1.14,1.67C86.6,60.45,86.53,59.22,87.18,59.1Z"/><path class="cls-8" d="M87,41.67l-.24.25a16.66,16.66,0,0,1-3.53,0c.22-.32.62-.12.89-.45H81.37c-.24-.61.2-.64.59-.66a7.66,7.66,0,0,1,2.61.17,2.7,2.7,0,0,0,1.88.12C86.86,40.92,87.24,41.07,87,41.67Z"/><path class="cls-2" d="M77.62,47.65C76,50,74.33,51,73,50.17,74.79,49.86,76.06,48.76,77.62,47.65Z"/><path class="cls-3" d="M86.75,44.22c.7.2,1.41.54,1.51,1.27s-.89.18-1.12.67a2.51,2.51,0,0,1-.83-1.45C86.2,44.35,86.43,44.23,86.75,44.22Z"/><path class="cls-2" d="M76.05,46.59c-.44.23-.87.5-1.33.69a.67.67,0,0,1-.88-.36A.88.88,0,0,1,74,46c.09-.11.27-.37.39,0,.2.69.72.36,1.14.35C75.82,46.23,76.06,46.18,76.05,46.59Z"/><path class="cls-3" d="M82.35,57.26l-.48.24a4.33,4.33,0,0,0-2-.27C80.8,55.87,81.57,56.82,82.35,57.26Z"/><path class="cls-1" d="M124.19,54.75l-.31-.32a8.14,8.14,0,0,1,2.52-1.25A6.38,6.38,0,0,1,124.19,54.75Z"/><path class="cls-3" d="M93.72,72.63c-.1-.23-.33-.21-.51-.27l2.11-1c.23,0,.32.08.25.3A10.06,10.06,0,0,1,93.72,72.63Z"/><path class="cls-3" d="M83.51,50.33c-.09-.23-.31-.23-.51-.27a5.73,5.73,0,0,1,2.6-.79Z"/><path class="cls-2" d="M76.05,46.59c-.06-.29-.31-.23-.49-.28l1.66-.89A1.76,1.76,0,0,1,76.05,46.59Z"/><path class="cls-3" d="M87,62.61l.28.28-1.67.9-.12-.22Z"/><path class="cls-3" d="M95.57,71.69l-.25-.3A3.29,3.29,0,0,1,97,70.75,2.94,2.94,0,0,1,95.57,71.69Z"/><path class="cls-3" d="M80.73,53.11a.75.75,0,0,0-.5-.48c.16-.28.37-.74.69-.52C81.4,52.44,81,52.81,80.73,53.11Z"/></svg>